<svg width="325" height="325" viewBox="0 0 325 325" fill="none" xmlns="http://www.w3.org/2000/svg">
<circle cx="162.5" cy="162.5" r="162.5" fill="#F603EC"/>
<circle cx="162.5" cy="162.5" r="162.5" fill="url(#paint0_linear)"/>
<path d="M118.234 179.109H91.7969L86.2656 195H73.9375L99.7188 126.75H110.359L136.188 195H123.812L118.234 179.109ZM95.125 169.547H114.906L105.016 141.234L95.125 169.547ZM169.047 168.703H155.828V195H143.969V126.75H167.969C175.844 126.75 181.922 128.516 186.203 132.047C190.484 135.578 192.625 140.688 192.625 147.375C192.625 151.938 191.516 155.766 189.297 158.859C187.109 161.922 184.047 164.281 180.109 165.938L195.438 194.391V195H182.734L169.047 168.703ZM155.828 159.188H168.016C172.016 159.188 175.141 158.188 177.391 156.188C179.641 154.156 180.766 151.391 180.766 147.891C180.766 144.234 179.719 141.406 177.625 139.406C175.562 137.406 172.469 136.375 168.344 136.312H155.828V159.188ZM250.844 136.312H229.562V195H217.797V136.312H196.703V126.75H250.844V136.312Z" fill="white"/>
<defs>
<linearGradient id="paint0_linear" x1="53" y1="40.5" x2="252" y2="223" gradientUnits="userSpaceOnUse">
<stop stop-color="#FE0096"/>
<stop offset="1" stop-color="white" stop-opacity="0"/>
</linearGradient>
</defs>
</svg>
