<svg width="275" height="275" viewBox="0 0 275 275" fill="none" xmlns="http://www.w3.org/2000/svg">
<rect width="275" height="275" rx="60" fill="#F1DD31"/>
<rect width="275" height="275" rx="60" fill="url(#paint0_linear)"/>
<path d="M152.109 147.781C151.422 155.062 148.734 160.75 144.047 164.844C139.359 168.906 133.125 170.938 125.344 170.938C119.906 170.938 115.109 169.656 110.953 167.094C106.828 164.5 103.641 160.828 101.391 156.078C99.1406 151.328 97.9688 145.812 97.875 139.531V133.156C97.875 126.719 99.0156 121.047 101.297 116.141C103.578 111.234 106.844 107.453 111.094 104.797C115.375 102.141 120.312 100.812 125.906 100.812C133.438 100.812 139.5 102.859 144.094 106.953C148.688 111.047 151.359 116.828 152.109 124.297H140.297C139.734 119.391 138.297 115.859 135.984 113.703C133.703 111.516 130.344 110.422 125.906 110.422C120.75 110.422 116.781 112.312 114 116.094C111.25 119.844 109.844 125.359 109.781 132.641V138.688C109.781 146.062 111.094 151.688 113.719 155.562C116.375 159.438 120.25 161.375 125.344 161.375C130 161.375 133.5 160.328 135.844 158.234C138.188 156.141 139.672 152.656 140.297 147.781H152.109ZM175.266 170H163.453V101.75H175.266V170Z" fill="white"/>
<defs>
<linearGradient id="paint0_linear" x1="0" y1="0" x2="275" y2="275" gradientUnits="userSpaceOnUse">
<stop stop-color="#F6A934"/>
<stop offset="0.150907" stop-color="#F7B653" stop-opacity="0.849093"/>
<stop offset="1" stop-color="white" stop-opacity="0"/>
</linearGradient>
</defs>
</svg>
