<svg width="325" height="325" viewBox="0 0 325 325" fill="none" xmlns="http://www.w3.org/2000/svg">
<circle cx="162.5" cy="162.5" r="162.5" fill="#7E16F7"/>
<circle cx="162.5" cy="162.5" r="162.5" fill="url(#paint0_linear)"/>
<path d="M130.203 162.656C130.203 169.125 129.172 174.734 127.109 179.484C125.078 184.203 122.219 187.953 118.531 190.734L130.25 199.875L122.562 206.812L108.031 195.328C106.125 195.734 104.078 195.938 101.891 195.938C96.3906 195.938 91.4688 194.594 87.125 191.906C82.8125 189.188 79.4688 185.328 77.0938 180.328C74.75 175.328 73.5625 169.562 73.5312 163.031V159.188C73.5312 152.531 74.7031 146.656 77.0469 141.562C79.4219 136.469 82.75 132.578 87.0312 129.891C91.3438 127.172 96.2656 125.812 101.797 125.812C107.422 125.812 112.375 127.156 116.656 129.844C120.969 132.5 124.297 136.344 126.641 141.375C128.984 146.375 130.172 152.203 130.203 158.859V162.656ZM118.297 159.094C118.297 151.406 116.859 145.578 113.984 141.609C111.109 137.641 107.047 135.656 101.797 135.656C96.7031 135.656 92.7031 137.672 89.7969 141.703C86.9219 145.703 85.4531 151.359 85.3906 158.672V162.656C85.3906 170.031 86.8281 175.797 89.7031 179.953C92.6094 184.109 96.6719 186.188 101.891 186.188C107.172 186.188 111.219 184.188 114.031 180.188C116.875 176.188 118.297 170.344 118.297 162.656V159.094ZM142.25 195V126.75H162.406C168.438 126.75 173.781 128.094 178.438 130.781C183.125 133.469 186.75 137.281 189.312 142.219C191.875 147.156 193.156 152.812 193.156 159.188V162.609C193.156 169.078 191.859 174.766 189.266 179.672C186.703 184.578 183.031 188.359 178.25 191.016C173.5 193.672 168.047 195 161.891 195H142.25ZM154.109 136.312V185.531H161.844C168.062 185.531 172.828 183.594 176.141 179.719C179.484 175.812 181.188 170.219 181.25 162.938V159.141C181.25 151.734 179.641 146.078 176.422 142.172C173.203 138.266 168.531 136.312 162.406 136.312H154.109ZM240.641 177.422C240.641 174.422 239.578 172.109 237.453 170.484C235.359 168.859 231.562 167.219 226.062 165.562C220.562 163.906 216.188 162.062 212.938 160.031C206.719 156.125 203.609 151.031 203.609 144.75C203.609 139.25 205.844 134.719 210.312 131.156C214.812 127.594 220.641 125.812 227.797 125.812C232.547 125.812 236.781 126.688 240.5 128.438C244.219 130.188 247.141 132.688 249.266 135.938C251.391 139.156 252.453 142.734 252.453 146.672H240.641C240.641 143.109 239.516 140.328 237.266 138.328C235.047 136.297 231.859 135.281 227.703 135.281C223.828 135.281 220.812 136.109 218.656 137.766C216.531 139.422 215.469 141.734 215.469 144.703C215.469 147.203 216.625 149.297 218.938 150.984C221.25 152.641 225.062 154.266 230.375 155.859C235.688 157.422 239.953 159.219 243.172 161.25C246.391 163.25 248.75 165.562 250.25 168.188C251.75 170.781 252.5 173.828 252.5 177.328C252.5 183.016 250.312 187.547 245.938 190.922C241.594 194.266 235.688 195.938 228.219 195.938C223.281 195.938 218.734 195.031 214.578 193.219C210.453 191.375 207.234 188.844 204.922 185.625C202.641 182.406 201.5 178.656 201.5 174.375H213.359C213.359 178.25 214.641 181.25 217.203 183.375C219.766 185.5 223.438 186.562 228.219 186.562C232.344 186.562 235.438 185.734 237.5 184.078C239.594 182.391 240.641 180.172 240.641 177.422Z" fill="white"/>
<defs>
<linearGradient id="paint0_linear" x1="58.5" y1="18.5" x2="325" y2="250" gradientUnits="userSpaceOnUse">
<stop stop-color="#C400AF"/>
<stop offset="1" stop-color="white" stop-opacity="0"/>
</linearGradient>
</defs>
</svg>
