<svg width="325" height="325" viewBox="0 0 325 325" fill="none" xmlns="http://www.w3.org/2000/svg">
<circle cx="162.5" cy="162.5" r="162.5" fill="#17D3F2"/>
<circle cx="162.5" cy="162.5" r="162.5" fill="url(#paint0_linear)"/>
<path d="M128.734 177.422C128.734 174.422 127.672 172.109 125.547 170.484C123.453 168.859 119.656 167.219 114.156 165.562C108.656 163.906 104.281 162.062 101.031 160.031C94.8125 156.125 91.7031 151.031 91.7031 144.75C91.7031 139.25 93.9375 134.719 98.4062 131.156C102.906 127.594 108.734 125.812 115.891 125.812C120.641 125.812 124.875 126.688 128.594 128.438C132.312 130.188 135.234 132.688 137.359 135.938C139.484 139.156 140.547 142.734 140.547 146.672H128.734C128.734 143.109 127.609 140.328 125.359 138.328C123.141 136.297 119.953 135.281 115.797 135.281C111.922 135.281 108.906 136.109 106.75 137.766C104.625 139.422 103.562 141.734 103.562 144.703C103.562 147.203 104.719 149.297 107.031 150.984C109.344 152.641 113.156 154.266 118.469 155.859C123.781 157.422 128.047 159.219 131.266 161.25C134.484 163.25 136.844 165.562 138.344 168.188C139.844 170.781 140.594 173.828 140.594 177.328C140.594 183.016 138.406 187.547 134.031 190.922C129.688 194.266 123.781 195.938 116.312 195.938C111.375 195.938 106.828 195.031 102.672 193.219C98.5469 191.375 95.3281 188.844 93.0156 185.625C90.7344 182.406 89.5938 178.656 89.5938 174.375H101.453C101.453 178.25 102.734 181.25 105.297 183.375C107.859 185.5 111.531 186.562 116.312 186.562C120.438 186.562 123.531 185.734 125.594 184.078C127.688 182.391 128.734 180.172 128.734 177.422ZM203.078 172.781C202.391 180.062 199.703 185.75 195.016 189.844C190.328 193.906 184.094 195.938 176.312 195.938C170.875 195.938 166.078 194.656 161.922 192.094C157.797 189.5 154.609 185.828 152.359 181.078C150.109 176.328 148.938 170.812 148.844 164.531V158.156C148.844 151.719 149.984 146.047 152.266 141.141C154.547 136.234 157.812 132.453 162.062 129.797C166.344 127.141 171.281 125.812 176.875 125.812C184.406 125.812 190.469 127.859 195.062 131.953C199.656 136.047 202.328 141.828 203.078 149.297H191.266C190.703 144.391 189.266 140.859 186.953 138.703C184.672 136.516 181.312 135.422 176.875 135.422C171.719 135.422 167.75 137.312 164.969 141.094C162.219 144.844 160.812 150.359 160.75 157.641V163.688C160.75 171.062 162.062 176.688 164.688 180.562C167.344 184.438 171.219 186.375 176.312 186.375C180.969 186.375 184.469 185.328 186.812 183.234C189.156 181.141 190.641 177.656 191.266 172.781H203.078ZM226.234 195H214.422V126.75H226.234V195Z" fill="white"/>
<defs>
<linearGradient id="paint0_linear" x1="31.5" y1="5.76769e-06" x2="325" y2="250" gradientUnits="userSpaceOnUse">
<stop stop-color="#A3FFB0"/>
<stop offset="1" stop-color="white" stop-opacity="0"/>
</linearGradient>
</defs>
</svg>
