<svg width="325" height="325" viewBox="0 0 325 325" fill="none" xmlns="http://www.w3.org/2000/svg">
<circle cx="162.5" cy="162.5" r="162.5" fill="#1A93FF"/>
<circle cx="162.5" cy="162.5" r="162.5" fill="url(#paint0_linear)"/>
<path d="M131.469 136.312H110.188V195H98.4219V136.312H77.3281V126.75H131.469V136.312ZM173.047 179.109H146.609L141.078 195H128.75L154.531 126.75H165.172L191 195H178.625L173.047 179.109ZM149.938 169.547H169.719L159.828 141.234L149.938 169.547ZM234.453 177.422C234.453 174.422 233.391 172.109 231.266 170.484C229.172 168.859 225.375 167.219 219.875 165.562C214.375 163.906 210 162.062 206.75 160.031C200.531 156.125 197.422 151.031 197.422 144.75C197.422 139.25 199.656 134.719 204.125 131.156C208.625 127.594 214.453 125.812 221.609 125.812C226.359 125.812 230.594 126.688 234.312 128.438C238.031 130.188 240.953 132.688 243.078 135.938C245.203 139.156 246.266 142.734 246.266 146.672H234.453C234.453 143.109 233.328 140.328 231.078 138.328C228.859 136.297 225.672 135.281 221.516 135.281C217.641 135.281 214.625 136.109 212.469 137.766C210.344 139.422 209.281 141.734 209.281 144.703C209.281 147.203 210.438 149.297 212.75 150.984C215.062 152.641 218.875 154.266 224.188 155.859C229.5 157.422 233.766 159.219 236.984 161.25C240.203 163.25 242.562 165.562 244.062 168.188C245.562 170.781 246.312 173.828 246.312 177.328C246.312 183.016 244.125 187.547 239.75 190.922C235.406 194.266 229.5 195.938 222.031 195.938C217.094 195.938 212.547 195.031 208.391 193.219C204.266 191.375 201.047 188.844 198.734 185.625C196.453 182.406 195.312 178.656 195.312 174.375H207.172C207.172 178.25 208.453 181.25 211.016 183.375C213.578 185.5 217.25 186.562 222.031 186.562C226.156 186.562 229.25 185.734 231.312 184.078C233.406 182.391 234.453 180.172 234.453 177.422Z" fill="white"/>
<defs>
<linearGradient id="paint0_linear" x1="31.5" y1="5.76769e-06" x2="325" y2="250" gradientUnits="userSpaceOnUse">
<stop stop-color="#25DAFF"/>
<stop offset="1" stop-color="white" stop-opacity="0"/>
</linearGradient>
</defs>
</svg>
