<svg width="80" height="103" viewBox="0 0 80 103" fill="none" xmlns="http://www.w3.org/2000/svg">
<path d="M41.956 5.69238H40.2294V27.4625H41.956V5.69238Z" fill="#7ACDCF"/>
<path d="M68.5107 65.1283H11.2573C5.04162 65.1283 0 60.0831 0 53.8631V51.6861C0 45.466 5.04162 40.4209 11.2573 40.4209H68.5107C74.7264 40.4209 79.7681 45.466 79.7681 51.6861V53.8631C79.7681 60.0831 74.7264 65.1283 68.5107 65.1283Z" fill="#7ACDCF"/>
<path d="M75.1063 25.3896H4.66174V80.1606H75.1063V25.3896Z" fill="#F2FAFC"/>
<path d="M55.078 79.124H24.6902V91.5641H55.078V79.124Z" fill="#7ACDCF"/>
<path d="M75.1063 102.621H4.66174V100.272C4.66174 95.4683 8.54655 91.5635 13.3637 91.5635H66.4216C71.2215 91.5635 75.1235 95.451 75.1235 100.272V102.621H75.1063Z" fill="#F2FAFC"/>
<path d="M67.1812 32.8193H12.604V72.7313H67.1812V32.8193Z" fill="#3F4253"/>
<path d="M24.2756 50.5463C25.5725 50.5463 26.6238 49.4942 26.6238 48.1965C26.6238 46.8987 25.5725 45.8467 24.2756 45.8467C22.9788 45.8467 21.9275 46.8987 21.9275 48.1965C21.9275 49.4942 22.9788 50.5463 24.2756 50.5463Z" fill="#7ACDCF"/>
<path d="M55.147 50.5463C56.4438 50.5463 57.4951 49.4942 57.4951 48.1965C57.4951 46.8987 56.4438 45.8467 55.147 45.8467C53.8501 45.8467 52.7988 46.8987 52.7988 48.1965C52.7988 49.4942 53.8501 50.5463 55.147 50.5463Z" fill="#7ACDCF"/>
<path d="M46.7904 65.8196C42.9746 65.8196 39.884 62.7269 39.884 58.9085V57.1807H53.6967V58.9085C53.6967 62.7269 50.6061 65.8196 46.7904 65.8196Z" fill="#7ACDCF"/>
<path d="M40.92 7.59363C42.9225 7.59363 44.5458 5.96916 44.5458 3.96527C44.5458 1.96139 42.9225 0.336914 40.92 0.336914C38.9175 0.336914 37.2942 1.96139 37.2942 3.96527C37.2942 5.96916 38.9175 7.59363 40.92 7.59363Z" fill="#7ACDCF"/>
</svg>
