<svg width="34" height="34" viewBox="0 0 34 34" fill="none" xmlns="http://www.w3.org/2000/svg">
<path fill-rule="evenodd" clip-rule="evenodd" d="M15.5833 21.2498H9.91668C7.57918 21.2498 5.66668 19.3373 5.66668 16.9998C5.66668 14.6623 7.57918 12.7498 9.91668 12.7498H15.5833V9.9165H9.91668C6.00668 9.9165 2.83334 13.0898 2.83334 16.9998C2.83334 20.9098 6.00668 24.0832 9.91668 24.0832H15.5833V21.2498ZM24.0833 9.9165H18.4167V12.7498H24.0833C26.4208 12.7498 28.3333 14.6623 28.3333 16.9998C28.3333 19.3373 26.4208 21.2498 24.0833 21.2498H18.4167V24.0832H24.0833C27.9933 24.0832 31.1667 20.9098 31.1667 16.9998C31.1667 13.0898 27.9933 9.9165 24.0833 9.9165ZM22.6667 15.5832H11.3333V18.4165H22.6667V15.5832Z" fill="#838484"/>
</svg>
