<svg width="19" height="19" viewBox="0 0 19 19" fill="none" xmlns="http://www.w3.org/2000/svg">
<path d="M11.6845 10.5494H11.0905L10.88 10.3464C11.6168 9.48921 12.0605 8.3764 12.0605 7.16585C12.0605 4.46653 9.87243 2.2785 7.17311 2.2785C4.47379 2.2785 2.28577 4.46653 2.28577 7.16585C2.28577 9.86516 4.47379 12.0532 7.17311 12.0532C8.38367 12.0532 9.49648 11.6096 10.3536 10.8727L10.5567 11.0832V11.6772L14.3161 15.4292L15.4365 14.3089L11.6845 10.5494ZM7.17311 10.5494C5.30088 10.5494 3.78956 9.03807 3.78956 7.16585C3.78956 5.29362 5.30088 3.7823 7.17311 3.7823C9.04534 3.7823 10.5567 5.29362 10.5567 7.16585C10.5567 9.03807 9.04534 10.5494 7.17311 10.5494Z" fill="black" fill-opacity="0.54"/>
</svg>
