<svg width="28" height="29" viewBox="0 0 28 29" fill="none" xmlns="http://www.w3.org/2000/svg">
<path d="M14.1143 19.4875C12.7915 19.4875 11.5229 18.962 10.5876 18.0267C9.65226 17.0914 9.1268 15.8228 9.1268 14.5C9.1268 13.1772 9.65226 11.9086 10.5876 10.9733C11.5229 10.038 12.7915 9.5125 14.1143 9.5125C15.4371 9.5125 16.7057 10.038 17.641 10.9733C18.5763 11.9086 19.1018 13.1772 19.1018 14.5C19.1018 15.8228 18.5763 17.0914 17.641 18.0267C16.7057 18.962 15.4371 19.4875 14.1143 19.4875V19.4875ZM24.702 15.8822C24.759 15.4262 24.8018 14.9702 24.8018 14.5C24.8018 14.0297 24.759 13.5595 24.702 13.075L27.7088 10.7522C27.9795 10.5385 28.0508 10.1537 27.8798 9.84025L25.0298 4.90975C24.8588 4.59625 24.474 4.468 24.1605 4.59625L20.6123 6.02125C19.8713 5.4655 19.1018 4.981 18.204 4.62475L17.6768 0.8485C17.6198 0.5065 17.3205 0.25 16.9643 0.25H11.2643C10.908 0.25 10.6088 0.5065 10.5518 0.8485L10.0245 4.62475C9.1268 4.981 8.3573 5.4655 7.6163 6.02125L4.06805 4.59625C3.75455 4.468 3.3698 4.59625 3.1988 4.90975L0.348797 9.84025C0.163547 10.1537 0.249048 10.5385 0.519798 10.7522L3.52655 13.075C3.46955 13.5595 3.4268 14.0297 3.4268 14.5C3.4268 14.9702 3.46955 15.4262 3.52655 15.8822L0.519798 18.2477C0.249048 18.4615 0.163547 18.8463 0.348797 19.1598L3.1988 24.0902C3.3698 24.4037 3.75455 24.5178 4.06805 24.4038L7.6163 22.9645C8.3573 23.5345 9.1268 24.019 10.0245 24.3752L10.5518 28.1515C10.6088 28.4935 10.908 28.75 11.2643 28.75H16.9643C17.3205 28.75 17.6198 28.4935 17.6768 28.1515L18.204 24.3752C19.1018 24.0047 19.8713 23.5345 20.6123 22.9645L24.1605 24.4038C24.474 24.5178 24.8588 24.4037 25.0298 24.0902L27.8798 19.1598C28.0508 18.8463 27.9795 18.4615 27.7088 18.2477L24.702 15.8822Z" fill="black" fill-opacity="0.54"/>
</svg>
