<svg width="46" height="27" viewBox="0 0 46 27" fill="none" xmlns="http://www.w3.org/2000/svg">
<rect width="46" height="27" rx="8" fill="#DC1BA6"/>
<path d="M16.6611 16.012H12.5871L11.8871 18H10.2211L13.7071 8.256H15.5551L19.0411 18H17.3611L16.6611 16.012ZM16.2131 14.71L14.6311 10.188L13.0351 14.71H16.2131ZM25.6108 18L23.3708 14.108H22.1528V18H20.5568V8.27H23.9168C24.6635 8.27 25.2935 8.40067 25.8068 8.662C26.3295 8.92333 26.7168 9.27333 26.9688 9.712C27.2302 10.1507 27.3608 10.6407 27.3608 11.182C27.3608 11.8167 27.1742 12.3953 26.8008 12.918C26.4368 13.4313 25.8722 13.7813 25.1068 13.968L27.5148 18H25.6108ZM22.1528 12.834H23.9168C24.5142 12.834 24.9622 12.6847 25.2608 12.386C25.5688 12.0873 25.7228 11.686 25.7228 11.182C25.7228 10.678 25.5735 10.286 25.2748 10.006C24.9762 9.71667 24.5235 9.572 23.9168 9.572H22.1528V12.834ZM35.6885 8.27V9.572H33.0985V18H31.5025V9.572H28.8985V8.27H35.6885Z" fill="white"/>
</svg>
