<svg width="32" height="27" viewBox="0 0 32 27" fill="none" xmlns="http://www.w3.org/2000/svg">
<rect width="32" height="27" rx="8" fill="#46A8AE"/>
<path d="M7.99359 13.114C7.99359 12.162 8.21292 11.308 8.65159 10.552C9.09959 9.796 9.70159 9.208 10.4576 8.788C11.2229 8.35867 12.0583 8.144 12.9636 8.144C13.9996 8.144 14.9189 8.40067 15.7216 8.914C16.5336 9.418 17.1216 10.1367 17.4856 11.07H15.5676C15.3156 10.5567 14.9656 10.174 14.5176 9.922C14.0696 9.67 13.5516 9.544 12.9636 9.544C12.3196 9.544 11.7456 9.68867 11.2416 9.978C10.7376 10.2673 10.3409 10.6827 10.0516 11.224C9.77159 11.7653 9.63159 12.3953 9.63159 13.114C9.63159 13.8327 9.77159 14.4627 10.0516 15.004C10.3409 15.5453 10.7376 15.9653 11.2416 16.264C11.7456 16.5533 12.3196 16.698 12.9636 16.698C13.5516 16.698 14.0696 16.572 14.5176 16.32C14.9656 16.068 15.3156 15.6853 15.5676 15.172H17.4856C17.1216 16.1053 16.5336 16.824 15.7216 17.328C14.9189 17.832 13.9996 18.084 12.9636 18.084C12.0489 18.084 11.2136 17.874 10.4576 17.454C9.70159 17.0247 9.09959 16.432 8.65159 15.676C8.21292 14.92 7.99359 14.066 7.99359 13.114ZM20.9497 16.712H24.2397V18H19.3537V8.27H20.9497V16.712Z" fill="white"/>
</svg>
