<svg width="32" height="27" viewBox="0 0 32 27" fill="none" xmlns="http://www.w3.org/2000/svg">
<rect width="32" height="27" rx="8" fill="#46A8AE"/>
<path d="M9.25823 13.114C9.25823 12.162 9.47757 11.308 9.91623 10.552C10.3642 9.796 10.9662 9.208 11.7222 8.788C12.4876 8.35867 13.3229 8.144 14.2282 8.144C15.2642 8.144 16.1836 8.40067 16.9862 8.914C17.7982 9.418 18.3862 10.1367 18.7502 11.07H16.8322C16.5802 10.5567 16.2302 10.174 15.7822 9.922C15.3342 9.67 14.8162 9.544 14.2282 9.544C13.5842 9.544 13.0102 9.68867 12.5062 9.978C12.0022 10.2673 11.6056 10.6827 11.3162 11.224C11.0362 11.7653 10.8962 12.3953 10.8962 13.114C10.8962 13.8327 11.0362 14.4627 11.3162 15.004C11.6056 15.5453 12.0022 15.9653 12.5062 16.264C13.0102 16.5533 13.5842 16.698 14.2282 16.698C14.8162 16.698 15.3342 16.572 15.7822 16.32C16.2302 16.068 16.5802 15.6853 16.8322 15.172H18.7502C18.3862 16.1053 17.7982 16.824 16.9862 17.328C16.1836 17.832 15.2642 18.084 14.2282 18.084C13.3136 18.084 12.4782 17.874 11.7222 17.454C10.9662 17.0247 10.3642 16.432 9.91623 15.676C9.47757 14.92 9.25823 14.066 9.25823 13.114ZM22.2144 8.27V18H20.6184V8.27H22.2144Z" fill="white"/>
</svg>
