<svg width="325" height="325" viewBox="0 0 325 325" fill="none" xmlns="http://www.w3.org/2000/svg">
<circle cx="162.5" cy="162.5" r="162.5" fill="#7E16F7"/>
<circle cx="162.5" cy="162.5" r="162.5" fill="url(#paint0_linear)"/>
<path d="M127.172 162.656C127.172 169.125 126.141 174.734 124.078 179.484C122.047 184.203 119.188 187.953 115.5 190.734L127.219 199.875L119.531 206.812L105 195.328C103.094 195.734 101.047 195.938 98.8594 195.938C93.3594 195.938 88.4375 194.594 84.0938 191.906C79.7812 189.188 76.4375 185.328 74.0625 180.328C71.7188 175.328 70.5312 169.562 70.5 163.031V159.188C70.5 152.531 71.6719 146.656 74.0156 141.562C76.3906 136.469 79.7188 132.578 84 129.891C88.3125 127.172 93.2344 125.812 98.7656 125.812C104.391 125.812 109.344 127.156 113.625 129.844C117.938 132.5 121.266 136.344 123.609 141.375C125.953 146.375 127.141 152.203 127.172 158.859V162.656ZM115.266 159.094C115.266 151.406 113.828 145.578 110.953 141.609C108.078 137.641 104.016 135.656 98.7656 135.656C93.6719 135.656 89.6719 137.672 86.7656 141.703C83.8906 145.703 82.4219 151.359 82.3594 158.672V162.656C82.3594 170.031 83.7969 175.797 86.6719 179.953C89.5781 184.109 93.6406 186.188 98.8594 186.188C104.141 186.188 108.188 184.188 111 180.188C113.844 176.188 115.266 170.344 115.266 162.656V159.094ZM139.219 195V126.75H159.375C165.406 126.75 170.75 128.094 175.406 130.781C180.094 133.469 183.719 137.281 186.281 142.219C188.844 147.156 190.125 152.812 190.125 159.188V162.609C190.125 169.078 188.828 174.766 186.234 179.672C183.672 184.578 180 188.359 175.219 191.016C170.469 193.672 165.016 195 158.859 195H139.219ZM151.078 136.312V185.531H158.812C165.031 185.531 169.797 183.594 173.109 179.719C176.453 175.812 178.156 170.219 178.219 162.938V159.141C178.219 151.734 176.609 146.078 173.391 142.172C170.172 138.266 165.5 136.312 159.375 136.312H151.078ZM237.609 177.422C237.609 174.422 236.547 172.109 234.422 170.484C232.328 168.859 228.531 167.219 223.031 165.562C217.531 163.906 213.156 162.062 209.906 160.031C203.688 156.125 200.578 151.031 200.578 144.75C200.578 139.25 202.812 134.719 207.281 131.156C211.781 127.594 217.609 125.812 224.766 125.812C229.516 125.812 233.75 126.688 237.469 128.438C241.188 130.188 244.109 132.688 246.234 135.938C248.359 139.156 249.422 142.734 249.422 146.672H237.609C237.609 143.109 236.484 140.328 234.234 138.328C232.016 136.297 228.828 135.281 224.672 135.281C220.797 135.281 217.781 136.109 215.625 137.766C213.5 139.422 212.438 141.734 212.438 144.703C212.438 147.203 213.594 149.297 215.906 150.984C218.219 152.641 222.031 154.266 227.344 155.859C232.656 157.422 236.922 159.219 240.141 161.25C243.359 163.25 245.719 165.562 247.219 168.188C248.719 170.781 249.469 173.828 249.469 177.328C249.469 183.016 247.281 187.547 242.906 190.922C238.562 194.266 232.656 195.938 225.188 195.938C220.25 195.938 215.703 195.031 211.547 193.219C207.422 191.375 204.203 188.844 201.891 185.625C199.609 182.406 198.469 178.656 198.469 174.375H210.328C210.328 178.25 211.609 181.25 214.172 183.375C216.734 185.5 220.406 186.562 225.188 186.562C229.312 186.562 232.406 185.734 234.469 184.078C236.562 182.391 237.609 180.172 237.609 177.422Z" fill="white"/>
<defs>
<linearGradient id="paint0_linear" x1="58.5" y1="18.5" x2="325" y2="250" gradientUnits="userSpaceOnUse">
<stop stop-color="#C400AF"/>
<stop offset="1" stop-color="white" stop-opacity="0"/>
</linearGradient>
</defs>
</svg>
