<svg width="46" height="27" viewBox="0 0 46 27" fill="none" xmlns="http://www.w3.org/2000/svg">
<rect width="46" height="27" rx="8" fill="#51AEF1"/>
<path d="M16.8847 19.764L15.1767 17.916C14.7567 18.0373 14.2947 18.098 13.7907 18.098C12.8854 18.098 12.0501 17.888 11.2847 17.468C10.5287 17.0387 9.92673 16.446 9.47873 15.69C9.04007 14.9247 8.82073 14.066 8.82073 13.114C8.82073 12.162 9.04007 11.308 9.47873 10.552C9.92673 9.796 10.5287 9.208 11.2847 8.788C12.0501 8.35867 12.8854 8.144 13.7907 8.144C14.7054 8.144 15.5407 8.35867 16.2967 8.788C17.0621 9.208 17.6641 9.796 18.1027 10.552C18.5414 11.308 18.7607 12.162 18.7607 13.114C18.7607 14.01 18.5647 14.822 18.1727 15.55C17.7901 16.2687 17.2581 16.8473 16.5767 17.286L18.9147 19.764H16.8847ZM10.4587 13.114C10.4587 13.8327 10.5987 14.4673 10.8787 15.018C11.1681 15.5593 11.5647 15.9793 12.0687 16.278C12.5727 16.5673 13.1467 16.712 13.7907 16.712C14.4347 16.712 15.0087 16.5673 15.5127 16.278C16.0167 15.9793 16.4087 15.5593 16.6887 15.018C16.9781 14.4673 17.1227 13.8327 17.1227 13.114C17.1227 12.3953 16.9781 11.7653 16.6887 11.224C16.4087 10.6827 16.0167 10.2673 15.5127 9.978C15.0087 9.68867 14.4347 9.544 13.7907 9.544C13.1467 9.544 12.5727 9.68867 12.0687 9.978C11.5647 10.2673 11.1681 10.6827 10.8787 11.224C10.5987 11.7653 10.4587 12.3953 10.4587 13.114ZM23.5503 8.27C24.5863 8.27 25.4916 8.47067 26.2663 8.872C27.0503 9.264 27.6523 9.83333 28.0723 10.58C28.5016 11.3173 28.7163 12.1807 28.7163 13.17C28.7163 14.1593 28.5016 15.018 28.0723 15.746C27.6523 16.474 27.0503 17.034 26.2663 17.426C25.4916 17.8087 24.5863 18 23.5503 18H20.3723V8.27H23.5503ZM23.5503 16.698C24.6889 16.698 25.5616 16.39 26.1683 15.774C26.7749 15.158 27.0783 14.29 27.0783 13.17C27.0783 12.0407 26.7749 11.1587 26.1683 10.524C25.5616 9.88933 24.6889 9.572 23.5503 9.572H21.9683V16.698H23.5503ZM33.504 18.098C32.8507 18.098 32.2627 17.986 31.74 17.762C31.2174 17.5287 30.8067 17.202 30.508 16.782C30.2094 16.362 30.06 15.872 30.06 15.312H31.768C31.8054 15.732 31.9687 16.0773 32.258 16.348C32.5567 16.6187 32.972 16.754 33.504 16.754C34.0547 16.754 34.484 16.6233 34.792 16.362C35.1 16.0913 35.254 15.746 35.254 15.326C35.254 14.9993 35.156 14.7333 34.96 14.528C34.7734 14.3227 34.5354 14.164 34.246 14.052C33.966 13.94 33.574 13.8187 33.07 13.688C32.4354 13.52 31.9174 13.352 31.516 13.184C31.124 13.0067 30.788 12.736 30.508 12.372C30.228 12.008 30.088 11.5227 30.088 10.916C30.088 10.356 30.228 9.866 30.508 9.446C30.788 9.026 31.18 8.704 31.684 8.48C32.188 8.256 32.7714 8.144 33.434 8.144C34.3767 8.144 35.1467 8.382 35.744 8.858C36.3507 9.32467 36.6867 9.96867 36.752 10.79H34.988C34.96 10.4353 34.792 10.132 34.484 9.88C34.176 9.628 33.77 9.502 33.266 9.502C32.8087 9.502 32.4354 9.61867 32.146 9.852C31.8567 10.0853 31.712 10.4213 31.712 10.86C31.712 11.1587 31.8007 11.406 31.978 11.602C32.1647 11.7887 32.398 11.938 32.678 12.05C32.958 12.162 33.3407 12.2833 33.826 12.414C34.47 12.5913 34.9927 12.7687 35.394 12.946C35.8047 13.1233 36.15 13.3987 36.43 13.772C36.7194 14.136 36.864 14.626 36.864 15.242C36.864 15.7367 36.7287 16.2033 36.458 16.642C36.1967 17.0807 35.8094 17.4353 35.296 17.706C34.792 17.9673 34.1947 18.098 33.504 18.098Z" fill="white"/>
</svg>
