<svg width="46" height="27" viewBox="0 0 46 27" fill="none" xmlns="http://www.w3.org/2000/svg">
<rect width="46" height="27" rx="8" fill="#1BDC97"/>
<path d="M15.7716 18.098C15.1183 18.098 14.5303 17.986 14.0076 17.762C13.485 17.5287 13.0743 17.202 12.7756 16.782C12.477 16.362 12.3276 15.872 12.3276 15.312H14.0356C14.073 15.732 14.2363 16.0773 14.5256 16.348C14.8243 16.6187 15.2396 16.754 15.7716 16.754C16.3223 16.754 16.7516 16.6233 17.0596 16.362C17.3676 16.0913 17.5216 15.746 17.5216 15.326C17.5216 14.9993 17.4236 14.7333 17.2276 14.528C17.041 14.3227 16.803 14.164 16.5136 14.052C16.2336 13.94 15.8416 13.8187 15.3376 13.688C14.703 13.52 14.185 13.352 13.7836 13.184C13.3916 13.0067 13.0556 12.736 12.7756 12.372C12.4956 12.008 12.3556 11.5227 12.3556 10.916C12.3556 10.356 12.4956 9.866 12.7756 9.446C13.0556 9.026 13.4476 8.704 13.9516 8.48C14.4556 8.256 15.039 8.144 15.7016 8.144C16.6443 8.144 17.4143 8.382 18.0116 8.858C18.6183 9.32467 18.9543 9.96867 19.0196 10.79H17.2556C17.2276 10.4353 17.0596 10.132 16.7516 9.88C16.4436 9.628 16.0376 9.502 15.5336 9.502C15.0763 9.502 14.703 9.61867 14.4136 9.852C14.1243 10.0853 13.9796 10.4213 13.9796 10.86C13.9796 11.1587 14.0683 11.406 14.2456 11.602C14.4323 11.7887 14.6656 11.938 14.9456 12.05C15.2256 12.162 15.6083 12.2833 16.0936 12.414C16.7376 12.5913 17.2603 12.7687 17.6616 12.946C18.0723 13.1233 18.4176 13.3987 18.6976 13.772C18.987 14.136 19.1316 14.626 19.1316 15.242C19.1316 15.7367 18.9963 16.2033 18.7256 16.642C18.4643 17.0807 18.077 17.4353 17.5636 17.706C17.0596 17.9673 16.4623 18.098 15.7716 18.098ZM20.4828 13.114C20.4828 12.162 20.7022 11.308 21.1408 10.552C21.5888 9.796 22.1908 9.208 22.9468 8.788C23.7122 8.35867 24.5475 8.144 25.4528 8.144C26.4888 8.144 27.4082 8.40067 28.2108 8.914C29.0228 9.418 29.6108 10.1367 29.9748 11.07H28.0568C27.8048 10.5567 27.4548 10.174 27.0068 9.922C26.5588 9.67 26.0408 9.544 25.4528 9.544C24.8088 9.544 24.2348 9.68867 23.7308 9.978C23.2268 10.2673 22.8302 10.6827 22.5408 11.224C22.2608 11.7653 22.1208 12.3953 22.1208 13.114C22.1208 13.8327 22.2608 14.4627 22.5408 15.004C22.8302 15.5453 23.2268 15.9653 23.7308 16.264C24.2348 16.5533 24.8088 16.698 25.4528 16.698C26.0408 16.698 26.5588 16.572 27.0068 16.32C27.4548 16.068 27.8048 15.6853 28.0568 15.172H29.9748C29.6108 16.1053 29.0228 16.824 28.2108 17.328C27.4082 17.832 26.4888 18.084 25.4528 18.084C24.5382 18.084 23.7028 17.874 22.9468 17.454C22.1908 17.0247 21.5888 16.432 21.1408 15.676C20.7022 14.92 20.4828 14.066 20.4828 13.114ZM33.439 8.27V18H31.843V8.27H33.439Z" fill="white"/>
</svg>
