<svg width="325" height="325" viewBox="0 0 325 325" fill="none" xmlns="http://www.w3.org/2000/svg">
<circle cx="162.5" cy="162.5" r="162.5" fill="#17D3F2"/>
<circle cx="162.5" cy="162.5" r="162.5" fill="url(#paint0_linear)"/>
<path d="M128.609 177.422C128.609 174.422 127.547 172.109 125.422 170.484C123.328 168.859 119.531 167.219 114.031 165.562C108.531 163.906 104.156 162.062 100.906 160.031C94.6875 156.125 91.5781 151.031 91.5781 144.75C91.5781 139.25 93.8125 134.719 98.2812 131.156C102.781 127.594 108.609 125.812 115.766 125.812C120.516 125.812 124.75 126.688 128.469 128.438C132.188 130.188 135.109 132.688 137.234 135.938C139.359 139.156 140.422 142.734 140.422 146.672H128.609C128.609 143.109 127.484 140.328 125.234 138.328C123.016 136.297 119.828 135.281 115.672 135.281C111.797 135.281 108.781 136.109 106.625 137.766C104.5 139.422 103.438 141.734 103.438 144.703C103.438 147.203 104.594 149.297 106.906 150.984C109.219 152.641 113.031 154.266 118.344 155.859C123.656 157.422 127.922 159.219 131.141 161.25C134.359 163.25 136.719 165.562 138.219 168.188C139.719 170.781 140.469 173.828 140.469 177.328C140.469 183.016 138.281 187.547 133.906 190.922C129.562 194.266 123.656 195.938 116.188 195.938C111.25 195.938 106.703 195.031 102.547 193.219C98.4219 191.375 95.2031 188.844 92.8906 185.625C90.6094 182.406 89.4688 178.656 89.4688 174.375H101.328C101.328 178.25 102.609 181.25 105.172 183.375C107.734 185.5 111.406 186.562 116.188 186.562C120.312 186.562 123.406 185.734 125.469 184.078C127.562 182.391 128.609 180.172 128.609 177.422ZM202.953 172.781C202.266 180.062 199.578 185.75 194.891 189.844C190.203 193.906 183.969 195.938 176.188 195.938C170.75 195.938 165.953 194.656 161.797 192.094C157.672 189.5 154.484 185.828 152.234 181.078C149.984 176.328 148.812 170.812 148.719 164.531V158.156C148.719 151.719 149.859 146.047 152.141 141.141C154.422 136.234 157.688 132.453 161.938 129.797C166.219 127.141 171.156 125.812 176.75 125.812C184.281 125.812 190.344 127.859 194.938 131.953C199.531 136.047 202.203 141.828 202.953 149.297H191.141C190.578 144.391 189.141 140.859 186.828 138.703C184.547 136.516 181.188 135.422 176.75 135.422C171.594 135.422 167.625 137.312 164.844 141.094C162.094 144.844 160.688 150.359 160.625 157.641V163.688C160.625 171.062 161.938 176.688 164.562 180.562C167.219 184.438 171.094 186.375 176.188 186.375C180.844 186.375 184.344 185.328 186.688 183.234C189.031 181.141 190.516 177.656 191.141 172.781H202.953ZM226.109 195H214.297V126.75H226.109V195Z" fill="white"/>
<defs>
<linearGradient id="paint0_linear" x1="31.5" y1="5.76769e-06" x2="325" y2="250" gradientUnits="userSpaceOnUse">
<stop stop-color="#A3FFB0"/>
<stop offset="1" stop-color="white" stop-opacity="0"/>
</linearGradient>
</defs>
</svg>
