<svg width="46" height="27" viewBox="0 0 46 27" fill="none" xmlns="http://www.w3.org/2000/svg">
<rect width="46" height="27" rx="8" fill="#0B9473"/>
<path d="M15.0402 18.098C14.3868 18.098 13.7988 17.986 13.2762 17.762C12.7535 17.5287 12.3428 17.202 12.0442 16.782C11.7455 16.362 11.5962 15.872 11.5962 15.312H13.3042C13.3415 15.732 13.5048 16.0773 13.7942 16.348C14.0928 16.6187 14.5082 16.754 15.0402 16.754C15.5908 16.754 16.0202 16.6233 16.3282 16.362C16.6362 16.0913 16.7902 15.746 16.7902 15.326C16.7902 14.9993 16.6922 14.7333 16.4962 14.528C16.3095 14.3227 16.0715 14.164 15.7822 14.052C15.5022 13.94 15.1102 13.8187 14.6062 13.688C13.9715 13.52 13.4535 13.352 13.0522 13.184C12.6602 13.0067 12.3242 12.736 12.0442 12.372C11.7642 12.008 11.6242 11.5227 11.6242 10.916C11.6242 10.356 11.7642 9.866 12.0442 9.446C12.3242 9.026 12.7162 8.704 13.2202 8.48C13.7242 8.256 14.3075 8.144 14.9702 8.144C15.9128 8.144 16.6828 8.382 17.2802 8.858C17.8868 9.32467 18.2228 9.96867 18.2882 10.79H16.5242C16.4962 10.4353 16.3282 10.132 16.0202 9.88C15.7122 9.628 15.3062 9.502 14.8022 9.502C14.3448 9.502 13.9715 9.61867 13.6822 9.852C13.3928 10.0853 13.2482 10.4213 13.2482 10.86C13.2482 11.1587 13.3368 11.406 13.5142 11.602C13.7008 11.7887 13.9342 11.938 14.2142 12.05C14.4942 12.162 14.8768 12.2833 15.3622 12.414C16.0062 12.5913 16.5288 12.7687 16.9302 12.946C17.3408 13.1233 17.6862 13.3987 17.9662 13.772C18.2555 14.136 18.4002 14.626 18.4002 15.242C18.4002 15.7367 18.2648 16.2033 17.9942 16.642C17.7328 17.0807 17.3455 17.4353 16.8322 17.706C16.3282 17.9673 15.7308 18.098 15.0402 18.098ZM21.8794 16.712H25.1694V18H20.2834V8.27H21.8794V16.712ZM32.3701 16.012H28.2961L27.5961 18H25.9301L29.4161 8.256H31.2641L34.7501 18H33.0701L32.3701 16.012ZM31.9221 14.71L30.3401 10.188L28.7441 14.71H31.9221Z" fill="white"/>
</svg>
