<svg width="325" height="325" viewBox="0 0 325 325" fill="none" xmlns="http://www.w3.org/2000/svg">
<circle cx="162.5" cy="162.5" r="162.5" fill="#17D3F2"/>
<circle cx="162.5" cy="162.5" r="162.5" fill="url(#paint0_linear)"/>
<path d="M127.609 177.422C127.609 174.422 126.547 172.109 124.422 170.484C122.328 168.859 118.531 167.219 113.031 165.562C107.531 163.906 103.156 162.062 99.9062 160.031C93.6875 156.125 90.5781 151.031 90.5781 144.75C90.5781 139.25 92.8125 134.719 97.2812 131.156C101.781 127.594 107.609 125.812 114.766 125.812C119.516 125.812 123.75 126.688 127.469 128.438C131.188 130.188 134.109 132.688 136.234 135.938C138.359 139.156 139.422 142.734 139.422 146.672H127.609C127.609 143.109 126.484 140.328 124.234 138.328C122.016 136.297 118.828 135.281 114.672 135.281C110.797 135.281 107.781 136.109 105.625 137.766C103.5 139.422 102.438 141.734 102.438 144.703C102.438 147.203 103.594 149.297 105.906 150.984C108.219 152.641 112.031 154.266 117.344 155.859C122.656 157.422 126.922 159.219 130.141 161.25C133.359 163.25 135.719 165.562 137.219 168.188C138.719 170.781 139.469 173.828 139.469 177.328C139.469 183.016 137.281 187.547 132.906 190.922C128.562 194.266 122.656 195.938 115.188 195.938C110.25 195.938 105.703 195.031 101.547 193.219C97.4219 191.375 94.2031 188.844 91.8906 185.625C89.6094 182.406 88.4688 178.656 88.4688 174.375H100.328C100.328 178.25 101.609 181.25 104.172 183.375C106.734 185.5 110.406 186.562 115.188 186.562C119.312 186.562 122.406 185.734 124.469 184.078C126.562 182.391 127.609 180.172 127.609 177.422ZM161.734 185.531H192.719V195H149.875V126.75H161.734V185.531ZM240.953 179.109H214.516L208.984 195H196.656L222.438 126.75H233.078L258.906 195H246.531L240.953 179.109ZM217.844 169.547H237.625L227.734 141.234L217.844 169.547Z" fill="white"/>
<defs>
<linearGradient id="paint0_linear" x1="31.5" y1="5.76769e-06" x2="325" y2="250" gradientUnits="userSpaceOnUse">
<stop stop-color="#A3FFB0"/>
<stop offset="1" stop-color="white" stop-opacity="0"/>
</linearGradient>
</defs>
</svg>
