<svg width="46" height="27" viewBox="0 0 46 27" fill="none" xmlns="http://www.w3.org/2000/svg">
<rect width="46" height="27" rx="8" fill="#F1C451"/>
<path d="M12.1281 18.098C11.4747 18.098 10.8867 17.986 10.3641 17.762C9.8414 17.5287 9.43074 17.202 9.13207 16.782C8.8334 16.362 8.68407 15.872 8.68407 15.312H10.3921C10.4294 15.732 10.5927 16.0773 10.8821 16.348C11.1807 16.6187 11.5961 16.754 12.1281 16.754C12.6787 16.754 13.1081 16.6233 13.4161 16.362C13.7241 16.0913 13.8781 15.746 13.8781 15.326C13.8781 14.9993 13.7801 14.7333 13.5841 14.528C13.3974 14.3227 13.1594 14.164 12.8701 14.052C12.5901 13.94 12.1981 13.8187 11.6941 13.688C11.0594 13.52 10.5414 13.352 10.1401 13.184C9.74807 13.0067 9.41207 12.736 9.13207 12.372C8.85207 12.008 8.71207 11.5227 8.71207 10.916C8.71207 10.356 8.85207 9.866 9.13207 9.446C9.41207 9.026 9.80407 8.704 10.3081 8.48C10.8121 8.256 11.3954 8.144 12.0581 8.144C13.0007 8.144 13.7707 8.382 14.3681 8.858C14.9747 9.32467 15.3107 9.96867 15.3761 10.79H13.6121C13.5841 10.4353 13.4161 10.132 13.1081 9.88C12.8001 9.628 12.3941 9.502 11.8901 9.502C11.4327 9.502 11.0594 9.61867 10.7701 9.852C10.4807 10.0853 10.3361 10.4213 10.3361 10.86C10.3361 11.1587 10.4247 11.406 10.6021 11.602C10.7887 11.7887 11.0221 11.938 11.3021 12.05C11.5821 12.162 11.9647 12.2833 12.4501 12.414C13.0941 12.5913 13.6167 12.7687 14.0181 12.946C14.4287 13.1233 14.7741 13.3987 15.0541 13.772C15.3434 14.136 15.4881 14.626 15.4881 15.242C15.4881 15.7367 15.3527 16.2033 15.0821 16.642C14.8207 17.0807 14.4334 17.4353 13.9201 17.706C13.4161 17.9673 12.8187 18.098 12.1281 18.098ZM21.8093 18.098C20.904 18.098 20.0686 17.888 19.3033 17.468C18.5473 17.0387 17.9453 16.446 17.4973 15.69C17.0586 14.9247 16.8393 14.066 16.8393 13.114C16.8393 12.162 17.0586 11.308 17.4973 10.552C17.9453 9.796 18.5473 9.208 19.3033 8.788C20.0686 8.35867 20.904 8.144 21.8093 8.144C22.724 8.144 23.5593 8.35867 24.3153 8.788C25.0806 9.208 25.6826 9.796 26.1213 10.552C26.56 11.308 26.7793 12.162 26.7793 13.114C26.7793 14.066 26.56 14.9247 26.1213 15.69C25.6826 16.446 25.0806 17.0387 24.3153 17.468C23.5593 17.888 22.724 18.098 21.8093 18.098ZM21.8093 16.712C22.4533 16.712 23.0273 16.5673 23.5313 16.278C24.0353 15.9793 24.4273 15.5593 24.7073 15.018C24.9966 14.4673 25.1413 13.8327 25.1413 13.114C25.1413 12.3953 24.9966 11.7653 24.7073 11.224C24.4273 10.6827 24.0353 10.2673 23.5313 9.978C23.0273 9.68867 22.4533 9.544 21.8093 9.544C21.1653 9.544 20.5913 9.68867 20.0873 9.978C19.5833 10.2673 19.1866 10.6827 18.8973 11.224C18.6173 11.7653 18.4773 12.3953 18.4773 13.114C18.4773 13.8327 18.6173 14.4673 18.8973 15.018C19.1866 15.5593 19.5833 15.9793 20.0873 16.278C20.5913 16.5673 21.1653 16.712 21.8093 16.712ZM27.8178 13.114C27.8178 12.162 28.0371 11.308 28.4758 10.552C28.9238 9.796 29.5258 9.208 30.2818 8.788C31.0471 8.35867 31.8825 8.144 32.7878 8.144C33.8238 8.144 34.7431 8.40067 35.5458 8.914C36.3578 9.418 36.9458 10.1367 37.3098 11.07H35.3918C35.1398 10.5567 34.7898 10.174 34.3418 9.922C33.8938 9.67 33.3758 9.544 32.7878 9.544C32.1438 9.544 31.5698 9.68867 31.0658 9.978C30.5618 10.2673 30.1651 10.6827 29.8758 11.224C29.5958 11.7653 29.4558 12.3953 29.4558 13.114C29.4558 13.8327 29.5958 14.4627 29.8758 15.004C30.1651 15.5453 30.5618 15.9653 31.0658 16.264C31.5698 16.5533 32.1438 16.698 32.7878 16.698C33.3758 16.698 33.8938 16.572 34.3418 16.32C34.7898 16.068 35.1398 15.6853 35.3918 15.172H37.3098C36.9458 16.1053 36.3578 16.824 35.5458 17.328C34.7431 17.832 33.8238 18.084 32.7878 18.084C31.8731 18.084 31.0378 17.874 30.2818 17.454C29.5258 17.0247 28.9238 16.432 28.4758 15.676C28.0371 14.92 27.8178 14.066 27.8178 13.114Z" fill="white"/>
</svg>
