<svg width="325" height="325" viewBox="0 0 325 325" fill="none" xmlns="http://www.w3.org/2000/svg">
<circle cx="162.5" cy="162.5" r="162.5" fill="#1A93FF"/>
<circle cx="162.5" cy="162.5" r="162.5" fill="url(#paint0_linear)"/>
<path d="M131.25 136.312H109.969V195H98.2031V136.312H77.1094V126.75H131.25V136.312ZM172.828 179.109H146.391L140.859 195H128.531L154.312 126.75H164.953L190.781 195H178.406L172.828 179.109ZM149.719 169.547H169.5L159.609 141.234L149.719 169.547ZM234.234 177.422C234.234 174.422 233.172 172.109 231.047 170.484C228.953 168.859 225.156 167.219 219.656 165.562C214.156 163.906 209.781 162.062 206.531 160.031C200.312 156.125 197.203 151.031 197.203 144.75C197.203 139.25 199.438 134.719 203.906 131.156C208.406 127.594 214.234 125.812 221.391 125.812C226.141 125.812 230.375 126.688 234.094 128.438C237.812 130.188 240.734 132.688 242.859 135.938C244.984 139.156 246.047 142.734 246.047 146.672H234.234C234.234 143.109 233.109 140.328 230.859 138.328C228.641 136.297 225.453 135.281 221.297 135.281C217.422 135.281 214.406 136.109 212.25 137.766C210.125 139.422 209.062 141.734 209.062 144.703C209.062 147.203 210.219 149.297 212.531 150.984C214.844 152.641 218.656 154.266 223.969 155.859C229.281 157.422 233.547 159.219 236.766 161.25C239.984 163.25 242.344 165.562 243.844 168.188C245.344 170.781 246.094 173.828 246.094 177.328C246.094 183.016 243.906 187.547 239.531 190.922C235.188 194.266 229.281 195.938 221.812 195.938C216.875 195.938 212.328 195.031 208.172 193.219C204.047 191.375 200.828 188.844 198.516 185.625C196.234 182.406 195.094 178.656 195.094 174.375H206.953C206.953 178.25 208.234 181.25 210.797 183.375C213.359 185.5 217.031 186.562 221.812 186.562C225.938 186.562 229.031 185.734 231.094 184.078C233.188 182.391 234.234 180.172 234.234 177.422Z" fill="white"/>
<defs>
<linearGradient id="paint0_linear" x1="31.5" y1="5.76769e-06" x2="325" y2="250" gradientUnits="userSpaceOnUse">
<stop stop-color="#25DAFF"/>
<stop offset="1" stop-color="white" stop-opacity="0"/>
</linearGradient>
</defs>
</svg>
