<svg width="92" height="27" viewBox="0 0 92 27" fill="none" xmlns="http://www.w3.org/2000/svg">
<path d="M40 0H78C82.4183 0 86 3.58172 86 8V19C86 23.4183 82.4183 27 78 27H40V0Z" fill="black"/>
<path d="M0 8C0 3.58172 3.58172 0 8 0H46V27H8C3.58172 27 0 23.4183 0 19V8Z" fill="#747474"/>
<path d="M32 27L32 -4.47035e-07L52 -4.47035e-07L32 27Z" fill="#747474"/>
<path d="M52 0L52 27H32L52 0Z" fill="black"/>
<path d="M58.3936 8.27V9.572H55.8036V18H54.2076V9.572H51.6036V8.27H58.3936ZM61.606 16.712H64.896V18H60.01V8.27H61.606V16.712ZM72.0967 16.012H68.0227L67.3227 18H65.6567L69.1427 8.256H70.9907L74.4767 18H72.7967L72.0967 16.012ZM71.6487 14.71L70.0667 10.188L68.4707 14.71H71.6487Z" fill="white"/>
<path d="M17.2794 8.27V9.572H14.6894V18H13.0934V9.572H10.4894V8.27H17.2794ZM24.7617 16.012H20.6877L19.9877 18H18.3217L21.8077 8.256H23.6557L27.1417 18H25.4617L24.7617 16.012ZM24.3137 14.71L22.7317 10.188L21.1357 14.71H24.3137ZM31.8634 18.098C31.2101 18.098 30.6221 17.986 30.0994 17.762C29.5768 17.5287 29.1661 17.202 28.8674 16.782C28.5688 16.362 28.4194 15.872 28.4194 15.312H30.1274C30.1648 15.732 30.3281 16.0773 30.6174 16.348C30.9161 16.6187 31.3314 16.754 31.8634 16.754C32.4141 16.754 32.8434 16.6233 33.1514 16.362C33.4594 16.0913 33.6134 15.746 33.6134 15.326C33.6134 14.9993 33.5154 14.7333 33.3194 14.528C33.1328 14.3227 32.8948 14.164 32.6054 14.052C32.3254 13.94 31.9334 13.8187 31.4294 13.688C30.7948 13.52 30.2768 13.352 29.8754 13.184C29.4834 13.0067 29.1474 12.736 28.8674 12.372C28.5874 12.008 28.4474 11.5227 28.4474 10.916C28.4474 10.356 28.5874 9.866 28.8674 9.446C29.1474 9.026 29.5394 8.704 30.0434 8.48C30.5474 8.256 31.1308 8.144 31.7934 8.144C32.7361 8.144 33.5061 8.382 34.1034 8.858C34.7101 9.32467 35.0461 9.96867 35.1114 10.79H33.3474C33.3194 10.4353 33.1514 10.132 32.8434 9.88C32.5354 9.628 32.1294 9.502 31.6254 9.502C31.1681 9.502 30.7948 9.61867 30.5054 9.852C30.2161 10.0853 30.0714 10.4213 30.0714 10.86C30.0714 11.1587 30.1601 11.406 30.3374 11.602C30.5241 11.7887 30.7574 11.938 31.0374 12.05C31.3174 12.162 31.7001 12.2833 32.1854 12.414C32.8294 12.5913 33.3521 12.7687 33.7534 12.946C34.1641 13.1233 34.5094 13.3987 34.7894 13.772C35.0788 14.136 35.2234 14.626 35.2234 15.242C35.2234 15.7367 35.0881 16.2033 34.8174 16.642C34.5561 17.0807 34.1688 17.4353 33.6554 17.706C33.1514 17.9673 32.5541 18.098 31.8634 18.098Z" fill="white"/>
</svg>
