<svg width="325" height="325" viewBox="0 0 325 325" fill="none" xmlns="http://www.w3.org/2000/svg">
<circle cx="162.5" cy="162.5" r="162.5" fill="#F603EC"/>
<circle cx="162.5" cy="162.5" r="162.5" fill="url(#paint0_linear)"/>
<path d="M118.141 179.109H91.7031L86.1719 195H73.8438L99.625 126.75H110.266L136.094 195H123.719L118.141 179.109ZM95.0312 169.547H114.812L104.922 141.234L95.0312 169.547ZM168.953 168.703H155.734V195H143.875V126.75H167.875C175.75 126.75 181.828 128.516 186.109 132.047C190.391 135.578 192.531 140.688 192.531 147.375C192.531 151.938 191.422 155.766 189.203 158.859C187.016 161.922 183.953 164.281 180.016 165.938L195.344 194.391V195H182.641L168.953 168.703ZM155.734 159.188H167.922C171.922 159.188 175.047 158.188 177.297 156.188C179.547 154.156 180.672 151.391 180.672 147.891C180.672 144.234 179.625 141.406 177.531 139.406C175.469 137.406 172.375 136.375 168.25 136.312H155.734V159.188ZM250.75 136.312H229.469V195H217.703V136.312H196.609V126.75H250.75V136.312Z" fill="white"/>
<defs>
<linearGradient id="paint0_linear" x1="53" y1="40.5" x2="252" y2="223" gradientUnits="userSpaceOnUse">
<stop stop-color="#FE0096"/>
<stop offset="1" stop-color="white" stop-opacity="0"/>
</linearGradient>
</defs>
</svg>
