<svg width="325" height="325" viewBox="0 0 325 325" fill="none" xmlns="http://www.w3.org/2000/svg">
<circle cx="162.5" cy="162.5" r="162.5" fill="#F1DD31"/>
<circle cx="162.5" cy="162.5" r="162.5" fill="url(#paint0_linear)"/>
<path d="M111.641 177.422C111.641 174.422 110.578 172.109 108.453 170.484C106.359 168.859 102.562 167.219 97.0625 165.562C91.5625 163.906 87.1875 162.062 83.9375 160.031C77.7188 156.125 74.6094 151.031 74.6094 144.75C74.6094 139.25 76.8438 134.719 81.3125 131.156C85.8125 127.594 91.6406 125.812 98.7969 125.812C103.547 125.812 107.781 126.688 111.5 128.438C115.219 130.188 118.141 132.688 120.266 135.938C122.391 139.156 123.453 142.734 123.453 146.672H111.641C111.641 143.109 110.516 140.328 108.266 138.328C106.047 136.297 102.859 135.281 98.7031 135.281C94.8281 135.281 91.8125 136.109 89.6562 137.766C87.5312 139.422 86.4688 141.734 86.4688 144.703C86.4688 147.203 87.625 149.297 89.9375 150.984C92.25 152.641 96.0625 154.266 101.375 155.859C106.688 157.422 110.953 159.219 114.172 161.25C117.391 163.25 119.75 165.562 121.25 168.188C122.75 170.781 123.5 173.828 123.5 177.328C123.5 183.016 121.312 187.547 116.938 190.922C112.594 194.266 106.688 195.938 99.2188 195.938C94.2812 195.938 89.7344 195.031 85.5781 193.219C81.4531 191.375 78.2344 188.844 75.9219 185.625C73.6406 182.406 72.5 178.656 72.5 174.375H84.3594C84.3594 178.25 85.6406 181.25 88.2031 183.375C90.7656 185.5 94.4375 186.562 99.2188 186.562C103.344 186.562 106.438 185.734 108.5 184.078C110.594 182.391 111.641 180.172 111.641 177.422ZM188.375 162.656C188.375 169.344 187.219 175.219 184.906 180.281C182.594 185.312 179.281 189.188 174.969 191.906C170.688 194.594 165.75 195.938 160.156 195.938C154.625 195.938 149.688 194.594 145.344 191.906C141.031 189.188 137.688 185.328 135.312 180.328C132.969 175.328 131.781 169.562 131.75 163.031V159.188C131.75 152.531 132.922 146.656 135.266 141.562C137.641 136.469 140.969 132.578 145.25 129.891C149.562 127.172 154.5 125.812 160.062 125.812C165.625 125.812 170.547 127.156 174.828 129.844C179.141 132.5 182.469 136.344 184.812 141.375C187.156 146.375 188.344 152.203 188.375 158.859V162.656ZM176.516 159.094C176.516 151.531 175.078 145.734 172.203 141.703C169.359 137.672 165.312 135.656 160.062 135.656C154.938 135.656 150.922 137.672 148.016 141.703C145.141 145.703 143.672 151.375 143.609 158.719V162.656C143.609 170.156 145.062 175.953 147.969 180.047C150.906 184.141 154.969 186.188 160.156 186.188C165.406 186.188 169.438 184.188 172.25 180.188C175.094 176.188 176.516 170.344 176.516 162.656V159.094ZM252.266 172.781C251.578 180.062 248.891 185.75 244.203 189.844C239.516 193.906 233.281 195.938 225.5 195.938C220.062 195.938 215.266 194.656 211.109 192.094C206.984 189.5 203.797 185.828 201.547 181.078C199.297 176.328 198.125 170.812 198.031 164.531V158.156C198.031 151.719 199.172 146.047 201.453 141.141C203.734 136.234 207 132.453 211.25 129.797C215.531 127.141 220.469 125.812 226.062 125.812C233.594 125.812 239.656 127.859 244.25 131.953C248.844 136.047 251.516 141.828 252.266 149.297H240.453C239.891 144.391 238.453 140.859 236.141 138.703C233.859 136.516 230.5 135.422 226.062 135.422C220.906 135.422 216.938 137.312 214.156 141.094C211.406 144.844 210 150.359 209.938 157.641V163.688C209.938 171.062 211.25 176.688 213.875 180.562C216.531 184.438 220.406 186.375 225.5 186.375C230.156 186.375 233.656 185.328 236 183.234C238.344 181.141 239.828 177.656 240.453 172.781H252.266Z" fill="white"/>
<defs>
<linearGradient id="paint0_linear" x1="31.5" y1="5.76769e-06" x2="325" y2="250" gradientUnits="userSpaceOnUse">
<stop stop-color="#8BFF17"/>
<stop offset="1" stop-color="#FFEA7E" stop-opacity="0"/>
</linearGradient>
</defs>
</svg>
