<svg width="325" height="325" viewBox="0 0 325 325" fill="none" xmlns="http://www.w3.org/2000/svg">
<rect width="325" height="325" rx="60" fill="#F1DD31"/>
<rect width="325" height="325" rx="60" fill="url(#paint0_linear)"/>
<path d="M177.109 172.781C176.422 180.062 173.734 185.75 169.047 189.844C164.359 193.906 158.125 195.938 150.344 195.938C144.906 195.938 140.109 194.656 135.953 192.094C131.828 189.5 128.641 185.828 126.391 181.078C124.141 176.328 122.969 170.812 122.875 164.531V158.156C122.875 151.719 124.016 146.047 126.297 141.141C128.578 136.234 131.844 132.453 136.094 129.797C140.375 127.141 145.312 125.812 150.906 125.812C158.438 125.812 164.5 127.859 169.094 131.953C173.688 136.047 176.359 141.828 177.109 149.297H165.297C164.734 144.391 163.297 140.859 160.984 138.703C158.703 136.516 155.344 135.422 150.906 135.422C145.75 135.422 141.781 137.312 139 141.094C136.25 144.844 134.844 150.359 134.781 157.641V163.688C134.781 171.062 136.094 176.688 138.719 180.562C141.375 184.438 145.25 186.375 150.344 186.375C155 186.375 158.5 185.328 160.844 183.234C163.188 181.141 164.672 177.656 165.297 172.781H177.109ZM200.266 195H188.453V126.75H200.266V195Z" fill="white"/>
<defs>
<linearGradient id="paint0_linear" x1="0" y1="0" x2="325" y2="325" gradientUnits="userSpaceOnUse">
<stop stop-color="#F6A934"/>
<stop offset="0.150907" stop-color="#F7B653" stop-opacity="0.849093"/>
<stop offset="1" stop-color="white" stop-opacity="0"/>
</linearGradient>
</defs>
</svg>
