<svg id="Layer_1" data-name="Layer 1" xmlns="http://www.w3.org/2000/svg" xmlns:xlink="http://www.w3.org/1999/xlink" viewBox="0 0 792 792"><defs><style>.cls-1{fill:url(#linear-gradient);}.cls-2,.cls-4{fill:none;stroke-width:16.18px;}.cls-2,.cls-3,.cls-4{stroke:#fff;stroke-linejoin:round;}.cls-2{stroke-linecap:round;}.cls-3{fill:#fff;stroke-width:9px;}</style><linearGradient id="linear-gradient" x1="1303.65" y1="-5409.16" x2="2049.65" y2="-5409.16" gradientTransform="translate(3027.66 5411.43) rotate(-45)" gradientUnits="userSpaceOnUse"><stop offset="0" stop-color="#653c94"/><stop offset="1" stop-color="#4a76b9"/></linearGradient></defs><title>Artboard 1</title><circle class="cls-1" cx="388.38" cy="401" r="373"/><polyline class="cls-2" points="383 358 478.55 407.71 478.55 588"/><path class="cls-3" d="M476.46,589.8c16.55,0,21.23,10.9,21.23,19.46,0,9-5.31,19.47-20.72,19.47H462.81V589.8Zm-10.62,36.42h11c9.36,0,17.64-6,17.64-17,0-10-7.25-17-17.81-17H465.84Z"/><path class="cls-4" d="M532.13,386V510a330.42,330.42,0,0,1-292,0V386"/><polygon class="cls-4" points="417.39 277.7 388.38 264.35 184.73 358 388.38 451.65 592.02 358 559.24 342.93 417.39 277.7"/></svg>