<svg id="Layer_1_copy_6" data-name="Layer 1 copy 6" xmlns="http://www.w3.org/2000/svg" xmlns:xlink="http://www.w3.org/1999/xlink" viewBox="0 0 792 792"><defs><style>.cls-1,.cls-2,.cls-3,.cls-4{fill:none;}.cls-1,.cls-3{stroke-miterlimit:10;stroke-width:16px;}.cls-1{stroke:url(#linear-gradient);}.cls-2,.cls-4{stroke-linejoin:round;}.cls-2{stroke-width:16.18px;stroke:url(#linear-gradient-2);}.cls-3,.cls-4{stroke-linecap:round;}.cls-3{stroke:url(#linear-gradient-3);}.cls-4{stroke-width:12px;stroke:url(#linear-gradient-4);}</style><linearGradient id="linear-gradient" x1="276.88" y1="559.73" x2="497.16" y2="339.45" gradientUnits="userSpaceOnUse"><stop offset="0" stop-color="#653c94"/><stop offset="1" stop-color="#4a76b9"/></linearGradient><linearGradient id="linear-gradient-2" x1="280.83" y1="465.54" x2="495.92" y2="250.46" xlink:href="#linear-gradient"/><linearGradient id="linear-gradient-3" x1="391.5" y1="512.27" x2="493.74" y2="410.04" xlink:href="#linear-gradient"/><linearGradient id="linear-gradient-4" x1="454.84" y1="629.24" x2="494.8" y2="589.28" xlink:href="#linear-gradient"/></defs><title>Artboard 1</title><path class="cls-1" d="M532.13,386V510a330.42,330.42,0,0,1-292,0V386"/><polygon class="cls-2" points="417.39 277.7 388.38 264.35 184.73 358 388.38 451.65 592.02 358 559.24 342.93 417.39 277.7"/><polyline class="cls-3" points="383 358 478.55 407.71 478.55 588"/><path class="cls-4" d="M476.46,589.8c16.55,0,21.23,10.9,21.23,19.46,0,9-5.31,19.47-20.72,19.47H462.81V589.8Zm-10.62,36.42h11c9.36,0,17.64-6,17.64-17,0-10-7.25-17-17.81-17H465.84Z"/></svg>