<svg id="Layer_1_copy_5" data-name="Layer 1 copy 5" xmlns="http://www.w3.org/2000/svg" viewBox="0 0 792 792"><defs><style>.cls-1,.cls-2,.cls-3,.cls-4{fill:none;stroke:#653c94;}.cls-1,.cls-3{stroke-miterlimit:10;stroke-width:16px;}.cls-2,.cls-4{stroke-linejoin:round;}.cls-2{stroke-width:16.18px;}.cls-3,.cls-4{stroke-linecap:round;}.cls-4{stroke-width:12px;}</style></defs><title>Artboard 1</title><path class="cls-1" d="M532.13,386V510a330.42,330.42,0,0,1-292,0V386"/><polygon class="cls-2" points="417.39 277.7 388.38 264.35 184.73 358 388.38 451.65 592.02 358 559.24 342.93 417.39 277.7"/><polyline class="cls-3" points="383 358 478.55 407.71 478.55 588"/><path class="cls-4" d="M476.46,589.8c16.55,0,21.23,10.9,21.23,19.46,0,9-5.31,19.47-20.72,19.47H462.81V589.8Zm-10.62,36.42h11c9.36,0,17.64-6,17.64-17,0-10-7.25-17-17.81-17H465.84Z"/></svg>