<svg width="544" height="214" viewBox="0 0 544 214" fill="none" xmlns="http://www.w3.org/2000/svg">
<path d="M101.336 214H141.656V173.104H167V137.968H141.656V6.63999H94.712L0.536001 141.424V173.104H101.336V214ZM44.888 137.968L103.928 49.84V137.968H44.888ZM192.67 106.288C192.67 167.632 211.102 213.424 270.43 213.424C329.758 213.424 348.19 167.632 348.19 106.288C348.19 45.52 329.758 0.0159912 270.43 0.0159912C211.102 0.0159912 192.67 45.52 192.67 106.288ZM308.446 106.288C308.446 143.728 304.414 175.984 270.43 175.984C236.446 175.984 232.414 143.728 232.414 106.288C232.414 70.288 236.446 37.456 270.43 37.456C304.414 37.456 308.446 70.288 308.446 106.288ZM477.93 214H518.25V173.104H543.594V137.968H518.25V6.63999H471.306L377.13 141.424V173.104H477.93V214ZM421.482 137.968L480.522 49.84V137.968H421.482Z" fill="#518FF5"/>
<path d="M101.336 214H141.656V173.104H167V137.968H141.656V6.63999H94.712L0.536001 141.424V173.104H101.336V214ZM44.888 137.968L103.928 49.84V137.968H44.888ZM192.67 106.288C192.67 167.632 211.102 213.424 270.43 213.424C329.758 213.424 348.19 167.632 348.19 106.288C348.19 45.52 329.758 0.0159912 270.43 0.0159912C211.102 0.0159912 192.67 45.52 192.67 106.288ZM308.446 106.288C308.446 143.728 304.414 175.984 270.43 175.984C236.446 175.984 232.414 143.728 232.414 106.288C232.414 70.288 236.446 37.456 270.43 37.456C304.414 37.456 308.446 70.288 308.446 106.288ZM477.93 214H518.25V173.104H543.594V137.968H518.25V6.63999H471.306L377.13 141.424V173.104H477.93V214ZM421.482 137.968L480.522 49.84V137.968H421.482Z" fill="url(#paint0_linear)"/>
<defs>
<linearGradient id="paint0_linear" x1="116.5" y1="274" x2="485" y2="-41" gradientUnits="userSpaceOnUse">
<stop stop-color="#8901FB"/>
<stop offset="1" stop-color="white" stop-opacity="0"/>
</linearGradient>
</defs>
</svg>
