<svg width="1028" height="217" viewBox="0 0 1028 217" fill="none" xmlns="http://www.w3.org/2000/svg">
<path d="M0.624125 137.104C0.624125 190.096 36.9121 216.016 80.9761 216.016C125.04 216.016 163.056 190.096 163.056 137.104V12.976H122.448V137.392C122.448 165.04 107.472 179.44 81.5521 179.44C55.9201 179.44 40.9441 165.04 40.9441 137.392V12.976H0.624125V137.104ZM202.013 214H242.333V125.872C242.333 100.24 256.445 86.416 278.333 86.416C299.645 86.416 313.757 100.24 313.757 125.872V214H354.077V120.4C354.077 76.336 327.869 52.144 291.869 52.144C270.557 52.144 252.701 60.784 242.333 74.32V0.879997H202.013V214ZM615.124 134.224C615.124 83.824 579.124 51.856 533.044 51.856C486.964 51.856 450.964 83.824 450.964 134.224C450.964 184.336 485.812 216.592 531.892 216.592C578.26 216.592 615.124 184.336 615.124 134.224ZM491.86 134.224C491.86 102.256 511.156 86.992 532.468 86.992C553.78 86.992 573.652 102.256 573.652 134.224C573.652 165.904 553.204 181.456 531.892 181.456C510.292 181.456 491.86 165.904 491.86 134.224ZM644.7 214H685.02V125.872C685.02 100.24 699.132 86.416 721.02 86.416C742.332 86.416 756.444 100.24 756.444 125.872V214H796.764V120.4C796.764 76.336 770.556 52.144 734.556 52.144C713.244 52.144 695.388 60.784 685.02 74.32V0.879997H644.7V214ZM877.442 192.4C877.442 179.152 867.074 168.784 852.962 168.784C838.274 168.784 827.906 179.152 827.906 192.4C827.906 205.648 838.274 216.016 852.962 216.016C867.074 216.016 877.442 205.648 877.442 192.4ZM952.255 192.4C952.255 179.152 941.887 168.784 927.775 168.784C913.087 168.784 902.719 179.152 902.719 192.4C902.719 205.648 913.087 216.016 927.775 216.016C941.887 216.016 952.255 205.648 952.255 192.4ZM1027.07 192.4C1027.07 179.152 1016.7 168.784 1002.59 168.784C987.899 168.784 977.531 179.152 977.531 192.4C977.531 205.648 987.899 216.016 1002.59 216.016C1016.7 216.016 1027.07 205.648 1027.07 192.4Z" fill="#518FF5"/>
<path d="M0.624125 137.104C0.624125 190.096 36.9121 216.016 80.9761 216.016C125.04 216.016 163.056 190.096 163.056 137.104V12.976H122.448V137.392C122.448 165.04 107.472 179.44 81.5521 179.44C55.9201 179.44 40.9441 165.04 40.9441 137.392V12.976H0.624125V137.104ZM202.013 214H242.333V125.872C242.333 100.24 256.445 86.416 278.333 86.416C299.645 86.416 313.757 100.24 313.757 125.872V214H354.077V120.4C354.077 76.336 327.869 52.144 291.869 52.144C270.557 52.144 252.701 60.784 242.333 74.32V0.879997H202.013V214ZM615.124 134.224C615.124 83.824 579.124 51.856 533.044 51.856C486.964 51.856 450.964 83.824 450.964 134.224C450.964 184.336 485.812 216.592 531.892 216.592C578.26 216.592 615.124 184.336 615.124 134.224ZM491.86 134.224C491.86 102.256 511.156 86.992 532.468 86.992C553.78 86.992 573.652 102.256 573.652 134.224C573.652 165.904 553.204 181.456 531.892 181.456C510.292 181.456 491.86 165.904 491.86 134.224ZM644.7 214H685.02V125.872C685.02 100.24 699.132 86.416 721.02 86.416C742.332 86.416 756.444 100.24 756.444 125.872V214H796.764V120.4C796.764 76.336 770.556 52.144 734.556 52.144C713.244 52.144 695.388 60.784 685.02 74.32V0.879997H644.7V214ZM877.442 192.4C877.442 179.152 867.074 168.784 852.962 168.784C838.274 168.784 827.906 179.152 827.906 192.4C827.906 205.648 838.274 216.016 852.962 216.016C867.074 216.016 877.442 205.648 877.442 192.4ZM952.255 192.4C952.255 179.152 941.887 168.784 927.775 168.784C913.087 168.784 902.719 179.152 902.719 192.4C902.719 205.648 913.087 216.016 927.775 216.016C941.887 216.016 952.255 205.648 952.255 192.4ZM1027.07 192.4C1027.07 179.152 1016.7 168.784 1002.59 168.784C987.899 168.784 977.531 179.152 977.531 192.4C977.531 205.648 987.899 216.016 1002.59 216.016C1016.7 216.016 1027.07 205.648 1027.07 192.4Z" fill="url(#paint0_linear)"/>
<defs>
<linearGradient id="paint0_linear" x1="222.87" y1="274" x2="558.506" y2="-261.863" gradientUnits="userSpaceOnUse">
<stop stop-color="#8901FB"/>
<stop offset="1" stop-color="white" stop-opacity="0"/>
</linearGradient>
</defs>
</svg>
